<?xml version="1.0" encoding="utf-8"?>
<!-- Generator: Adobe Illustrator 18.0.0, SVG Export Plug-In . SVG Version: 6.00 Build 0)  -->
<!DOCTYPE svg PUBLIC "-//W3C//DTD SVG 1.1//EN" "http://www.w3.org/Graphics/SVG/1.1/DTD/svg11.dtd">
<svg version="1.1" id="Capa_1" xmlns="http://www.w3.org/2000/svg" xmlns:xlink="http://www.w3.org/1999/xlink" x="0px" y="0px"
	 width="61.5px" height="61.5px" viewBox="58.19 64.1 61.5 61.5" enable-background="new 58.19 64.1 61.5 61.5"
	 xml:space="preserve">
<g>
	<path fill="#FFFFFF" d="M111.47,96.09c-0.2-0.07-0.7-0.15-1.99-0.15h-1.23c-0.19,0-0.34,0.15-0.34,0.34v1.78
		c0,0.19,0.15,0.34,0.34,0.34h1.51c1.03,0,1.41-0.03,1.55-0.06c0.29-0.05,0.51-0.17,0.68-0.36c0.16-0.19,0.25-0.44,0.25-0.77
		c0-0.29-0.06-0.52-0.2-0.71C111.91,96.31,111.72,96.17,111.47,96.09z"/>
	<path fill="#FFFFFF" d="M108.25,93.32h0.87c0.9,0,1.47-0.01,1.68-0.04c0.32-0.04,0.58-0.15,0.76-0.32
		c0.17-0.17,0.25-0.39,0.25-0.68c0-0.14-0.02-0.26-0.05-0.37c-0.05-0.16-0.29-0.43-0.45-0.49c-0.11-0.05-0.24-0.08-0.39-0.1
		c-0.22-0.02-0.88-0.04-1.98-0.04h-0.68c-0.19,0-0.34,0.15-0.34,0.34v1.35C107.9,93.17,108.06,93.32,108.25,93.32z"/>
	<path fill="#FFFFFF" d="M109.53,84.75c-5.57,0-10.1,4.53-10.1,10.1s4.53,10.1,10.1,10.1s10.1-4.53,10.1-10.1
		C119.63,89.28,115.1,84.75,109.53,84.75z M114.94,99.01c-0.27,0.55-0.65,1-1.12,1.33c-0.47,0.33-1.06,0.54-1.74,0.61
		c-0.42,0.04-1.39,0.07-2.88,0.08h0h-3.31c-0.56,0-1.01-0.45-1.01-1.01V89.68c0-0.56,0.45-1.01,1.01-1.01h4
		c0.95,0,1.65,0.04,2.13,0.12c0.5,0.09,0.96,0.27,1.35,0.54c0.4,0.28,0.74,0.64,1,1.08c0.27,0.46,0.41,0.98,0.41,1.54
		c0,0.61-0.17,1.18-0.5,1.69c-0.19,0.3-0.43,0.56-0.7,0.77c-0.01,0.01-0.02,0.01-0.02,0.02c0.01,0,0.01,0.01,0.02,0.01
		c0.46,0.23,0.84,0.53,1.13,0.91c0.43,0.56,0.64,1.22,0.64,1.97C115.35,97.89,115.21,98.47,114.94,99.01z"/>
	<path fill="#FFFFFF" d="M88.86,113.03l-0.94,2.57c-0.02,0.05-0.02,0.1-0.01,0.11c0.01,0.01,0.05,0.03,0.11,0.03h1.7
		c0.07,0,0.1-0.02,0.1-0.03c0.01-0.01,0.01-0.05-0.01-0.11L88.86,113.03z"/>
	<path fill="#FFFFFF" d="M88.94,105.33c-5.57,0-10.1,4.53-10.1,10.1c0,5.57,4.53,10.1,10.1,10.1s10.1-4.53,10.1-10.1
		C99.05,109.86,94.51,105.33,88.94,105.33z M94.39,120.37c-0.14,0.2-0.37,0.32-0.65,0.32h-1.12c-0.49,0-0.99-0.34-1.16-0.8
		l-0.49-1.29c-0.07-0.19-0.33-0.37-0.54-0.37h-3.07c-0.2,0-0.45,0.18-0.52,0.37l-0.46,1.28c-0.16,0.45-0.67,0.81-1.15,0.81h-1.06
		c-0.28,0-0.51-0.12-0.65-0.32c-0.14-0.2-0.16-0.46-0.06-0.72l3.75-9.64c0.18-0.45,0.68-0.79,1.16-0.79h1.06
		c0.48,0,0.99,0.34,1.17,0.79l3.86,9.64C94.54,119.9,94.52,120.16,94.39,120.37z"/>
	<path fill="#FFFFFF" d="M68.36,84.75c-5.57,0-10.1,4.53-10.1,10.1s4.53,10.1,10.1,10.1s10.1-4.53,10.1-10.1
		S73.93,84.75,68.36,84.75z M73.39,100.72c-0.11,0.21-0.34,0.33-0.63,0.33h-1.38c-0.46,0-0.99-0.29-1.24-0.68l-1.72-2.68
		c-0.03-0.05-0.06-0.06-0.06-0.07c0,0-0.02,0.02-0.05,0.07l-1.73,2.68c-0.25,0.39-0.78,0.68-1.24,0.68h-1.37
		c-0.29,0-0.52-0.12-0.63-0.33c-0.11-0.21-0.09-0.47,0.07-0.71l3.01-4.59c0.12-0.18,0.12-0.5,0-0.68l-2.67-4.12
		c-0.16-0.24-0.18-0.5-0.07-0.71c0.11-0.21,0.35-0.33,0.64-0.33h1.3c0.46,0,0.99,0.29,1.24,0.69l1.51,2.41
		c0.02,0.03,0.04,0.05,0.05,0.06c0-0.01,0.02-0.02,0.04-0.06l1.47-2.4c0.24-0.39,0.77-0.69,1.23-0.69h1.28
		c0.29,0,0.52,0.12,0.64,0.33c0.11,0.21,0.09,0.47-0.07,0.71l-2.69,4.19c-0.12,0.18-0.11,0.5,0.01,0.68l3,4.52
		C73.47,100.26,73.5,100.52,73.39,100.72z"/>
	<path fill="#FFFFFF" d="M88.94,64.17c-5.57,0-10.1,4.53-10.1,10.1s4.53,10.1,10.1,10.1s10.1-4.53,10.1-10.1
		C99.05,68.7,94.51,64.17,88.94,64.17z M93.94,70.32l-3.3,5.21c-0.15,0.24-0.28,0.69-0.28,0.97v3.28c0,0.53-0.43,0.96-0.96,0.96
		h-0.93c-0.53,0-0.96-0.43-0.96-0.96v-3.3c0-0.28-0.13-0.74-0.28-0.97l-3.29-5.2c-0.15-0.25-0.18-0.5-0.06-0.71
		c0.11-0.21,0.35-0.33,0.64-0.33h1.31c0.46,0,0.99,0.3,1.23,0.7l1.9,3.2c0.01,0.02,0.02,0.04,0.03,0.04c0-0.01,0.01-0.02,0.03-0.04
		l1.86-3.2c0.23-0.4,0.76-0.71,1.23-0.71h1.26c0.29,0,0.52,0.12,0.64,0.33C94.12,69.82,94.1,70.08,93.94,70.32z"/>
</g>
</svg>
