<?xml version="1.0" encoding="utf-8"?>
<!-- Generator: Adobe Illustrator 18.0.0, SVG Export Plug-In . SVG Version: 6.00 Build 0)  -->
<!DOCTYPE svg PUBLIC "-//W3C//DTD SVG 1.1//EN" "http://www.w3.org/Graphics/SVG/1.1/DTD/svg11.dtd">
<svg version="1.1" id="Capa_1" xmlns="http://www.w3.org/2000/svg" xmlns:xlink="http://www.w3.org/1999/xlink" x="0px" y="0px"
	 width="61.5px" height="61.5px" viewBox="58.19 64.1 61.5 61.5" enable-background="new 58.19 64.1 61.5 61.5"
	 xml:space="preserve">
<g>
	<path fill="#FFFFFF" d="M104.24,95.9c0.05-0.17,0.09-0.34,0.09-0.52c0-0.98-0.79-1.77-1.77-1.77h-22.1c-0.98,0-1.77,0.79-1.77,1.77
		c0,0.18,0.04,0.36,0.09,0.52H104.24z"/>
	<path fill="#FFFFFF" d="M113.36,99.58h-5.64h-0.34h-0.35c0.09-0.25,0.15-0.51,0.15-0.79c0-1.23-1-2.23-2.23-2.23h-0.29h-0.38h-0.43
		H79.15h-0.43h-0.38h-0.29c-1.23,0-2.23,1-2.23,2.23c0,0.28,0.06,0.54,0.15,0.79h-0.34H75.3h-1.26c0.15-0.75-0.26-1.63-1.25-1.63
		s-1.4,0.88-1.25,1.63h-1.88c-1.06,0-1.92,0.86-1.92,1.92v6.76c-5.18,1.1-7.2,6.76-2.45,10.44c2.48,1.93,6.05,1.75,8.99,1.63
		c4.7-0.18,8.58,1.07,11.62,4.78c1.08,1.32,2.95-0.56,1.87-1.87c-2.47-3.02-5.74-4.88-9.6-5.46c-2.06-0.31-4.19-0.07-6.27-0.03
		c-1.21,0.02-2.39-0.15-3.56-0.45c-3.74-0.95-3.83-5.27-0.61-6.33v1.38c0,1.06,0.86,1.92,1.92,1.92h43.7c1.06,0,1.92-0.86,1.92-1.92
		v-10.86C115.27,100.44,114.42,99.58,113.36,99.58z"/>
	<path fill="#FFFFFF" d="M86.3,80.1l2.21,10.55h-4.44c-0.78,0-1.42,0.63-1.42,1.42c0,0.33,0.12,0.63,0.31,0.87h17.09
		c0.19-0.24,0.31-0.54,0.31-0.87c0-0.78-0.63-1.42-1.42-1.42h-5.03L91.46,78.9c2.24-1.42,3.73-3.92,3.73-6.77
		c0-4.43-3.59-8.02-8.02-8.02c-4.43,0-8.02,3.59-8.02,8.02C79.15,76.27,82.28,79.67,86.3,80.1z M89.79,67.53
		c2.19,1.12,2.94,3.78,1.99,5.97c-0.58,1.32-2.51,0.18-1.94-1.13c0.49-1.11-0.17-2.38-1.18-2.9C87.37,68.81,88.5,66.88,89.79,67.53z
		"/>
</g>
</svg>
