<?xml version="1.0" encoding="utf-8"?>
<!-- Generator: Adobe Illustrator 18.0.0, SVG Export Plug-In . SVG Version: 6.00 Build 0)  -->
<!DOCTYPE svg PUBLIC "-//W3C//DTD SVG 1.1//EN" "http://www.w3.org/Graphics/SVG/1.1/DTD/svg11.dtd">
<svg version="1.1" id="Capa_1" xmlns="http://www.w3.org/2000/svg" xmlns:xlink="http://www.w3.org/1999/xlink" x="0px" y="0px"
	 width="61.5px" height="61.5px" viewBox="58.2 64.1 61.5 61.5" enable-background="new 58.2 64.1 61.5 61.5" xml:space="preserve">
<g>
	<path fill="#FFFFFF" d="M82.8,114.3c0,1.3,1,2.3,2.3,2.3h7.8c1.3,0,2.3-1,2.3-2.3V101h13.3c1.3,0,2.3-1,2.3-2.3V91
		c0-1.3-1-2.3-2.3-2.3H95.1V75.4c0-1.3-1-2.3-2.3-2.3H85c-1.3,0-2.3,1-2.3,2.3v13.3H69.5c-1.3,0-2.3,1-2.3,2.3v7.8
		c0,1.3,1,2.3,2.3,2.3h13.3L82.8,114.3L82.8,114.3z M101.8,91.5l5.9,3.3l-5.9,3.3V91.5z M88.9,76.1l3.3,5.9h-6.7L88.9,76.1z
		 M92.3,107.7l-3.3,5.9l-3.3-5.9L92.3,107.7L92.3,107.7z M76.1,98.2l-5.9-3.3l5.9-3.3V98.2L76.1,98.2z"/>
	<path fill="#FFFFFF" d="M88.9,125.6c17,0,30.7-13.8,30.7-30.7s-13.8-30.7-30.7-30.7S58.2,77.9,58.2,94.9S72,125.6,88.9,125.6z
		 M88.9,68.2c14.7,0,26.6,11.9,26.6,26.6s-11.9,26.6-26.6,26.6s-26.6-11.9-26.6-26.6S74.3,68.2,88.9,68.2z"/>
</g>
</svg>
