<?xml version="1.0" encoding="utf-8"?>
<!-- Generator: Adobe Illustrator 18.0.0, SVG Export Plug-In . SVG Version: 6.00 Build 0)  -->
<!DOCTYPE svg PUBLIC "-//W3C//DTD SVG 1.1//EN" "http://www.w3.org/Graphics/SVG/1.1/DTD/svg11.dtd">
<svg version="1.1" id="Capa_1" xmlns="http://www.w3.org/2000/svg" xmlns:xlink="http://www.w3.org/1999/xlink" x="0px" y="0px"
	 width="302.2px" height="73.6px" viewBox="0 0 302.2 73.6" style="enable-background:new 0 0 302.2 73.6;" xml:space="preserve">
<path style="fill:#3FD4CF;" d="M50.7,59.3h7.7v1.4h-6.2v4.8h6.1v1.4h-6.1v5h6.2v1.4h-7.7V59.3z"/>
<path style="fill:#3FD4CF;" d="M61.8,69.3c0.2,2.3,1.9,2.8,2.8,2.8c1.4,0,2.8-1.1,2.8-2.7c0-2-1.7-2.4-3.3-2.9
	c-1.1-0.3-3.6-1.1-3.6-3.7c0-2.5,2-3.8,4.1-3.8c1.7,0,3.7,1,4,3.6h-1.5c-0.2-0.9-0.6-2.3-2.5-2.3c-1.4,0-2.5,0.9-2.5,2.4
	c0,1.7,1.4,2.1,3.5,2.8c1.3,0.5,3.4,1.2,3.4,3.8c0,2.3-1.7,4.1-4.3,4.1c-2.3,0-4.3-1.5-4.4-4.1L61.8,69.3L61.8,69.3z"/>
<path style="fill:#3FD4CF;" d="M73.1,60.6h-3.4v-1.4h8.4v1.4h-3.4v12.5h-1.6V60.6z"/>
<path style="fill:#3FD4CF;" d="M78.6,73.2h-1.7l5.8-13.9h1.5L90,73.2h-1.7l-1.6-3.9h-6.5L78.6,73.2z M83.5,61l-2.8,7h5.5L83.5,61z"
	/>
<path style="fill:#3FD4CF;" d="M106.7,70.9V59.3h1.5v13.9h-1.5l-8.3-11.7v11.7h-1.5V59.3h1.6L106.7,70.9z"/>
<path style="fill:#3FD4CF;" d="M111.5,73.2h-1.7l5.8-13.9h1.5l5.8,13.9h-1.7l-1.6-3.9h-6.5L111.5,73.2z M116.3,61l-2.8,7h5.5
	L116.3,61z"/>
<path style="fill:#3FD4CF;" d="M121.3,59.3h1.6l4.6,11.9l4.6-11.9h1.6l-5.5,13.9h-1.5L121.3,59.3z"/>
<path style="fill:#3FD4CF;" d="M135.4,59.3h7.7v1.4h-6.2v4.8h6.1v1.4h-6.1v5h6.2v1.4h-7.7V59.3z"/>
<path style="fill:#3FD4CF;" d="M151,59.3h1.6v12.5h5.3v1.4H151V59.3z"/>
<path style="fill:#3FD4CF;" d="M159.8,73.2h-1.7l5.8-13.9h1.5l5.8,13.9h-1.7l-1.6-3.9h-6.5L159.8,73.2z M164.6,61l-2.8,7h5.5
	L164.6,61z"/>
<path style="fill:#3FD4CF;" d="M178.2,59.3h4.2c2,0,4.1,0.4,5.5,2.1c1.1,1.2,1.7,2.9,1.7,4.9c0,4.2-2.4,7-7.1,7h-4.2v-14
	C178.3,59.3,178.2,59.3,178.2,59.3z M179.7,71.8h2.8c3.6,0,5.4-2.2,5.4-5.5c0-1.6-0.4-3-1.4-4.1c-0.9-0.9-2.2-1.6-4.1-1.6h-2.7V71.8
	z"/>
<path style="fill:#3FD4CF;" d="M191.6,59.3h1.5v13.9h-1.5V59.3z"/>
<path style="fill:#3FD4CF;" d="M195.8,59.3h3.6c2.2,0,3.2,0.3,3.9,0.7c1.1,0.7,1.9,2.2,1.9,3.7c0,0.9-0.2,1.9-0.8,2.7
	c-0.8,1.1-1.8,1.4-3.1,1.5l3.5,5.2h-1.7l-3.9-6.1h0.5c1,0,2.3,0,3.1-0.7c0.7-0.7,1.1-1.6,1.1-2.6s-0.5-2.1-1.4-2.7
	c-0.7-0.5-1.6-0.5-2.8-0.5h-2.2V73h-1.6V59.3H195.8z"/>
<path style="fill:#3FD4CF;" d="M207,59.3h1.5v13.9H207V59.3z"/>
<path style="fill:#3FD4CF;" d="M222.7,62.9c-0.4-0.6-1-1.1-1.6-1.5c-0.9-0.6-2-1-3.2-1c-3,0-5.7,2.3-5.7,5.8c0,3.5,2.7,5.9,5.7,5.9
	c1.5,0,2.8-0.5,3.7-1.3c1-0.8,1.7-1.8,1.9-2.9h-6.9v-1.3h8.7c0,0.8-0.2,1.8-0.6,2.7c-1.2,2.6-4,4.1-6.8,4.1c-4.1,0-7.3-3.1-7.3-7.2
	c0-4.2,3.3-7.2,7.3-7.2c2.8,0,5.4,1.6,6.5,3.9L222.7,62.9L222.7,62.9z"/>
<path style="fill:#3FD4CF;" d="M227.4,59.3h7.7v1.4h-6.2v4.8h6.1v1.4h-6.1v5h6.2v1.4h-7.7V59.3z"/>
<path style="fill:#3FD4CF;" d="M238.5,69.3c0.2,2.3,1.9,2.8,2.8,2.8c1.4,0,2.8-1.1,2.8-2.7c0-2-1.7-2.4-3.3-2.9
	c-1.1-0.3-3.6-1.1-3.6-3.7c0-2.5,2-3.8,4.1-3.8c1.7,0,3.7,1,4,3.6h-1.6c-0.2-0.9-0.6-2.3-2.5-2.3c-1.4,0-2.5,0.9-2.5,2.4
	c0,1.7,1.4,2.1,3.5,2.8c1.3,0.5,3.4,1.2,3.4,3.8c0,2.3-1.7,4.1-4.3,4.1c-2.3,0-4.3-1.5-4.4-4.1L238.5,69.3L238.5,69.3z"/>
<path style="fill:#3FD4CF;" d="M253.5,60.6h-3.4v-1.4h8.4v1.4h-3.4v12.5h-1.6V60.6z"/>
<path style="fill:#3FD4CF;" d="M261.6,59.3v8.8c0,1.1,0,1.9,0.7,2.8c0.5,0.7,1.4,1.2,2.4,1.2s1.9-0.5,2.4-1.1
	c0.7-0.9,0.7-1.7,0.7-2.8v-8.8h1.5v8.8c0,1.6-0.2,3.2-1.6,4.3c-0.8,0.7-1.8,1.1-3,1.1c-1,0-2.2-0.3-3.1-1.1
	c-1.5-1.2-1.6-2.8-1.6-4.3v-8.8h1.6L261.6,59.3L261.6,59.3z M267,55.2l0.5,1l-4.5,2.4l-0.5-0.9L267,55.2z"/>
<path style="fill:#FF1D6B;" d="M160,20.7v5.9h17.5c-1.4,8.4-8.7,14.8-17.5,14.8c-9.8,0-17.8-8-17.8-17.8s8-17.8,17.8-17.8
	c4.5,0,8.7,1.7,11.8,4.5l4.5-3.9C172,2.5,166.3,0,160,0c-13.1,0-23.7,10.6-23.7,23.7s10.6,23.7,23.7,23.7
	c13.1,0,23.7-10.6,23.7-23.7c0-1-0.1-2-0.2-3H160z"/>
<polygon style="fill:#FF1D6B;" points="83,0 47.4,0 47.4,5.9 62.2,5.9 62.2,47.4 68.1,47.4 68.1,5.9 83,5.9 "/>
<rect x="296.3" y="0" style="fill:#FF1D6B;" width="5.9" height="47.4"/>
<path style="fill:#FF1D6B;" d="M228.1,41.5L228.1,41.5L228.1,41.5L207.4,0l0,0l0,0l0,0l0,0l-23.7,47.4h47.4L228.1,41.5z M192.6,41.5
	l14.8-29.6l14.8,29.6H192.6z"/>
<path style="fill:#FF1D6B;" d="M106.7,0C93.6,0,83,10.6,83,23.7s10.6,23.7,23.7,23.7s23.7-10.6,23.7-23.7
	C130.4,10.6,119.8,0,106.7,0z M106.7,41.5c-9.8,0-17.8-8-17.8-17.8s8-17.8,17.8-17.8s17.8,8,17.8,17.8
	C124.4,33.5,116.5,41.5,106.7,41.5z"/>
<path style="fill:#FF1D6B;" d="M23.7,0C10.6,0,0,10.6,0,23.7s10.6,23.7,23.7,23.7s23.7-10.6,23.7-23.7C47.4,10.6,36.8,0,23.7,0z
	 M23.7,41.5c-9.8,0-17.8-8-17.8-17.8s8-17.8,17.8-17.8s17.8,8,17.8,17.8S33.5,41.5,23.7,41.5z"/>
<path style="fill:#FF1D6B;" d="M260.7,20.7L237,0v47.4l0,0h47.4V0L260.7,20.7z M278.5,41.5H243V14.1l17.8,15.6l17.8-15.6v27.4H278.5
	z"/>
</svg>
