<?xml version="1.0" encoding="utf-8"?>
<!-- Generator: Adobe Illustrator 18.0.0, SVG Export Plug-In . SVG Version: 6.00 Build 0)  -->
<!DOCTYPE svg PUBLIC "-//W3C//DTD SVG 1.1//EN" "http://www.w3.org/Graphics/SVG/1.1/DTD/svg11.dtd">
<svg version="1.1" id="Capa_1" xmlns="http://www.w3.org/2000/svg" xmlns:xlink="http://www.w3.org/1999/xlink" x="0px" y="0px"
	 width="181.962px" height="44.2px" viewBox="0 0 181.962 44.2" style="enable-background:new 0 0 181.962 44.2;"
	 xml:space="preserve">
<g>
	<g>
		<path style="fill:#FF1D6B;" d="M91.132,11.813v3.376h9.983c-0.803,4.788-4.966,8.438-9.983,8.438
			c-5.593,0-10.126-4.533-10.126-10.126S85.539,3.375,91.132,3.375c2.58,0,4.933,0.967,6.721,2.557l2.555-2.236
			C97.989,1.407,94.726,0,91.132,0c-7.456,0-13.501,6.045-13.501,13.501c0,7.457,6.045,13.501,13.501,13.501
			c7.456,0,13.501-6.045,13.501-13.501c0-0.572-0.04-1.134-0.109-1.688H91.132z"/>
		<polygon style="fill:#FF1D6B;" points="47.253,0 27.002,0 27.002,3.375 35.44,3.375 35.44,27.002 38.816,27.002 38.816,3.375 
			47.253,3.375 		"/>
		<rect x="168.762" y="0" style="fill:#FF1D6B;" width="3.375" height="27.002"/>
		<path style="fill:#FF1D6B;" d="M129.947,23.627L129.947,23.627L129.947,23.627L118.134,0.001V0l-0.001,0.001V0v0.001
			l-13.501,27.001h27.002L129.947,23.627z M109.696,23.627l8.438-16.876l8.438,16.876H109.696z"/>
		<path style="fill:#FF1D6B;" d="M60.755,0c-7.457,0-13.501,6.045-13.501,13.501c0,7.457,6.045,13.501,13.501,13.501
			c7.456,0,13.501-6.045,13.501-13.501C74.256,6.045,68.211,0,60.755,0z M60.755,23.627c-5.593,0-10.126-4.533-10.126-10.126
			S55.162,3.375,60.755,3.375c5.592,0,10.126,4.533,10.126,10.126S66.347,23.627,60.755,23.627z"/>
		<path style="fill:#FF1D6B;" d="M13.501,0C6.045,0,0,6.045,0,13.501c0,7.457,6.045,13.501,13.501,13.501
			c7.456,0,13.501-6.045,13.501-13.501C27.002,6.045,20.957,0,13.501,0z M13.501,23.627c-5.593,0-10.126-4.533-10.126-10.126
			S7.909,3.375,13.501,3.375c5.592,0,10.126,4.533,10.126,10.126S19.093,23.627,13.501,23.627z"/>
		<path style="fill:#FF1D6B;" d="M148.511,11.814L135.01,0v27.002v0l27.002,0V0L148.511,11.814z M158.637,23.627h-20.252V8.016
			l10.126,8.86l10.126-8.86V23.627z"/>
	</g>
	<g>
		<path style="fill:#1CCFC9;stroke:#3FD3CE;stroke-width:0.5;stroke-miterlimit:10;" d="M44.33,33.524H46.5
			c0.623,0,1.121,0.033,1.496,0.098c0.374,0.066,0.686,0.171,0.934,0.316c0.449,0.272,0.794,0.624,1.036,1.057
			c0.241,0.433,0.361,0.921,0.361,1.464c0,0.515-0.109,0.991-0.326,1.429c-0.218,0.438-0.521,0.785-0.909,1.042
			c-0.272,0.183-0.596,0.315-0.972,0.397s-0.858,0.123-1.443,0.123h-1.341v4.297H44.33V33.524z M45.334,34.528v3.896h1.481
			c0.824,0,1.432-0.157,1.825-0.47c0.393-0.313,0.59-0.798,0.59-1.453c0-0.683-0.198-1.183-0.593-1.499
			c-0.395-0.316-1.031-0.474-1.906-0.474H45.334z"/>
		<path style="fill:#1CCFC9;stroke:#3FD3CE;stroke-width:0.5;stroke-miterlimit:10;" d="M50.537,43.746h-1.06l3.967-10.222h1.208
			l3.953,10.222h-1.074l-1.222-3.208h-4.549L50.537,43.746z M55.957,39.618l-1.938-5.132l-1.91,5.132H55.957z"/>
		<path style="fill:#1CCFC9;stroke:#3FD3CE;stroke-width:0.5;stroke-miterlimit:10;" d="M60.218,34.528v9.218h-0.99V33.524h2.745
			c0.604,0,1.089,0.046,1.457,0.137c0.367,0.091,0.701,0.242,1,0.453c0.407,0.285,0.729,0.667,0.965,1.144
			c0.236,0.478,0.355,0.983,0.355,1.517c0,0.791-0.235,1.472-0.706,2.043c-0.47,0.571-1.059,0.882-1.766,0.934l2.471,3.995h-1.194
			l-3.033-4.929h0.969c0.646,0,1.171-0.19,1.576-0.569c0.405-0.379,0.607-0.866,0.607-1.46c0-0.36-0.062-0.688-0.186-0.983
			c-0.124-0.295-0.308-0.552-0.551-0.772c-0.201-0.183-0.444-0.312-0.727-0.39c-0.283-0.077-0.788-0.116-1.513-0.116H60.218z"/>
		<path style="fill:#1CCFC9;stroke:#3FD3CE;stroke-width:0.5;stroke-miterlimit:10;" d="M67.12,43.746h-1.06l3.967-10.222h1.208
			l3.953,10.222h-1.074l-1.222-3.208h-4.549L67.12,43.746z M72.54,39.618l-1.938-5.132l-1.91,5.132H72.54z"/>
		<path style="fill:#1CCFC9;stroke:#3FD3CE;stroke-width:0.5;stroke-miterlimit:10;" d="M80.066,43.746V33.524h1.481l3.538,8.888
			l3.524-8.888h1.481v10.222H89.13v-9.029l-3.595,9.029H84.63l-3.595-9.029v9.029H80.066z"/>
		<path style="fill:#1CCFC9;stroke:#3FD3CE;stroke-width:0.5;stroke-miterlimit:10;" d="M92.9,38.109h4.297v1.011H92.9v3.637h4.297
			v0.99h-5.308V33.524h5.308v1.004H92.9V38.109z"/>
		<path style="fill:#1CCFC9;stroke:#3FD3CE;stroke-width:0.5;stroke-miterlimit:10;" d="M99.106,33.524h2.907
			c0.8,0,1.473,0.08,2.018,0.239c0.545,0.159,1.026,0.414,1.443,0.765c0.585,0.491,1.039,1.093,1.362,1.804
			c0.323,0.712,0.484,1.472,0.484,2.282c0,0.903-0.178,1.726-0.534,2.468c-0.356,0.742-0.859,1.347-1.509,1.815
			c-0.431,0.304-0.896,0.522-1.397,0.653c-0.501,0.131-1.273,0.197-2.317,0.197h-2.457V33.524z M100.096,34.5v8.284h2.085
			c1.301,0,2.303-0.365,3.005-1.095c0.702-0.73,1.053-1.765,1.053-3.103c0-0.669-0.119-1.287-0.358-1.854
			c-0.239-0.566-0.581-1.041-1.025-1.425c-0.332-0.29-0.704-0.497-1.116-0.621c-0.412-0.124-1.011-0.186-1.797-0.186H100.096z"/>
		<path style="fill:#1CCFC9;stroke:#3FD3CE;stroke-width:0.5;stroke-miterlimit:10;" d="M109.687,43.746h-1.004V33.524h1.004V43.746
			z"/>
		<path style="fill:#1CCFC9;stroke:#3FD3CE;stroke-width:0.5;stroke-miterlimit:10;" d="M111.07,38.572
			c0-0.712,0.137-1.39,0.411-2.036c0.274-0.646,0.671-1.224,1.19-1.734c0.501-0.491,1.052-0.861,1.654-1.109
			c0.601-0.248,1.253-0.372,1.955-0.372c0.716,0,1.38,0.125,1.99,0.376c0.611,0.25,1.169,0.624,1.674,1.12
			c0.519,0.51,0.91,1.081,1.172,1.713c0.262,0.632,0.393,1.313,0.393,2.043c0,0.725-0.112,1.391-0.337,1.997
			c-0.225,0.606-0.562,1.157-1.011,1.653c-0.519,0.571-1.107,1.002-1.762,1.292c-0.655,0.29-1.367,0.435-2.134,0.435
			c-1.47,0-2.703-0.516-3.7-1.548C111.568,41.37,111.07,40.093,111.07,38.572z M112.123,38.586c0,1.245,0.405,2.289,1.215,3.131
			c0.81,0.842,1.809,1.264,2.998,1.264c1.161,0,2.141-0.426,2.942-1.278c0.8-0.852,1.201-1.9,1.201-3.145
			c0-1.161-0.412-2.161-1.236-3.001c-0.824-0.84-1.816-1.26-2.977-1.26c-0.473,0-0.928,0.081-1.366,0.242
			c-0.438,0.161-0.841,0.399-1.211,0.713c-0.487,0.412-0.869,0.915-1.148,1.51C112.262,37.355,112.123,37.964,112.123,38.586z"/>
		<path style="fill:#1CCFC9;stroke:#3FD3CE;stroke-width:0.5;stroke-miterlimit:10;" d="M122.366,40.826h0.969
			c0.019,0.632,0.198,1.135,0.537,1.51s0.785,0.562,1.338,0.562c0.594,0,1.066-0.186,1.415-0.558
			c0.349-0.372,0.523-0.876,0.523-1.513c0-0.927-0.716-1.626-2.148-2.099c-0.112-0.038-0.197-0.065-0.253-0.084
			c-0.749-0.257-1.288-0.584-1.618-0.979c-0.33-0.395-0.495-0.911-0.495-1.548c0-0.815,0.254-1.481,0.762-2.001
			c0.508-0.52,1.164-0.779,1.969-0.779c0.767,0,1.376,0.236,1.825,0.709c0.449,0.473,0.7,1.138,0.751,1.994h-0.948
			c-0.052-0.557-0.218-0.986-0.499-1.288c-0.281-0.302-0.658-0.453-1.13-0.453c-0.506,0-0.919,0.165-1.239,0.495
			c-0.321,0.33-0.481,0.75-0.481,1.26c0,0.267,0.048,0.497,0.144,0.692c0.096,0.194,0.249,0.371,0.46,0.53
			c0.215,0.159,0.627,0.337,1.236,0.533c0.351,0.113,0.618,0.203,0.8,0.274c0.665,0.258,1.143,0.586,1.436,0.986
			c0.292,0.4,0.439,0.926,0.439,1.576c0,0.992-0.27,1.792-0.811,2.398c-0.541,0.606-1.258,0.909-2.152,0.909
			c-0.833,0-1.509-0.287-2.029-0.86C122.647,42.517,122.38,41.762,122.366,40.826z"/>
	</g>
	<polygon style="fill:#FF1D6B;" points="176.071,0.388 175.212,0.388 175.212,0 177.386,0 177.386,0.388 176.527,0.388 
		176.527,3.375 176.071,3.375 	"/>
	<polygon style="fill:#FF1D6B;" points="178.229,0 178.815,0 180.099,2.745 181.377,0 181.962,0 181.962,3.375 181.529,3.375 
		181.529,0.555 180.244,3.375 179.947,3.375 178.655,0.57 178.655,3.375 178.229,3.375 	"/>
</g>
</svg>
