<?xml version="1.0" encoding="utf-8"?>
<!-- Generator: Adobe Illustrator 18.0.0, SVG Export Plug-In . SVG Version: 6.00 Build 0)  -->
<!DOCTYPE svg PUBLIC "-//W3C//DTD SVG 1.1//EN" "http://www.w3.org/Graphics/SVG/1.1/DTD/svg11.dtd">
<svg version="1.1" id="Capa_1" xmlns="http://www.w3.org/2000/svg" xmlns:xlink="http://www.w3.org/1999/xlink" x="0px" y="0px"
	 width="182px" height="44.2px" viewBox="0 0 182 44.2" enable-background="new 0 0 182 44.2" xml:space="preserve">
<g>
	<path fill="#FF1D6B" d="M91.1,11.8v3.4h10c-0.8,4.8-5,8.4-10,8.4c-5.6,0-10.1-4.5-10.1-10.1S85.5,3.4,91.1,3.4c2.6,0,4.9,1,6.7,2.6
		l2.6-2.2C98,1.4,94.7,0,91.1,0c-7.5,0-13.5,6-13.5,13.5S83.6,27,91.1,27s13.5-6,13.5-13.5c0-0.6,0-1.1-0.1-1.7H91.1z"/>
	<polygon fill="#FF1D6B" points="47.3,0 27,0 27,3.4 35.4,3.4 35.4,27 38.8,27 38.8,3.4 47.3,3.4 	"/>
	<rect x="168.8" fill="#FF1D6B" width="3.4" height="27"/>
	<path fill="#FF1D6B" d="M129.9,23.6L129.9,23.6L129.9,23.6L118.1,0l0,0l0,0l0,0l0,0l-13.5,27h27L129.9,23.6z M109.7,23.6l8.4-16.9
		l8.4,16.9H109.7z"/>
	<path fill="#FF1D6B" d="M60.8,0c-7.5,0-13.5,6-13.5,13.5S53.3,27,60.8,27s13.5-6,13.5-13.5S68.2,0,60.8,0z M60.8,23.6
		c-5.6,0-10.1-4.5-10.1-10.1S55.2,3.4,60.8,3.4s10.1,4.5,10.1,10.1S66.3,23.6,60.8,23.6z"/>
	<path fill="#FF1D6B" d="M13.5,0C6,0,0,6,0,13.5S6,27,13.5,27S27,21,27,13.5S21,0,13.5,0z M13.5,23.6c-5.6,0-10.1-4.5-10.1-10.1
		S7.9,3.4,13.5,3.4s10.1,4.5,10.1,10.1S19.1,23.6,13.5,23.6z"/>
	<path fill="#FF1D6B" d="M148.5,11.8L135,0v27l0,0h27V0L148.5,11.8z M158.6,23.6h-20.3V8l10.1,8.9L158.6,8V23.6L158.6,23.6z"/>
</g>
<polygon fill="#FF1D6B" points="176.1,0.4 175.2,0.4 175.2,0 177.4,0 177.4,0.4 176.5,0.4 176.5,3.4 176.1,3.4 "/>
<polygon fill="#FF1D6B" points="178.2,0 178.8,0 180.1,2.7 181.4,0 182,0 182,3.4 181.5,3.4 181.5,0.6 180.2,3.4 179.9,3.4 
	178.7,0.6 178.7,3.4 178.2,3.4 "/>
<g>
	<g enable-background="new    ">
		<path fill="#1CCFC9" d="M48.472,34.08c0.614-0.103,1.418-0.19,2.441-0.19c1.257,0,2.178,0.293,2.763,0.818
			c0.541,0.468,0.862,1.185,0.862,2.062c0,0.892-0.263,1.594-0.76,2.105c-0.673,0.716-1.769,1.081-3.012,1.081
			c-0.38,0-0.73-0.015-1.023-0.088v3.947h-1.272V34.08z M49.744,38.831c0.278,0.072,0.628,0.102,1.052,0.102
			c1.535,0,2.471-0.745,2.471-2.104c0-1.301-0.921-1.93-2.324-1.93c-0.556,0-0.979,0.044-1.199,0.103V38.831z"/>
		<path fill="#1CCFC9" d="M56.615,40.717l-1.023,3.099h-1.316l3.348-9.853h1.535l3.362,9.853h-1.359l-1.053-3.099H56.615z
			 M59.846,39.723l-0.965-2.836c-0.219-0.644-0.366-1.229-0.512-1.798H58.34c-0.146,0.584-0.307,1.184-0.497,1.783l-0.965,2.851
			H59.846z"/>
		<path fill="#1CCFC9" d="M63.97,34.095c0.643-0.132,1.564-0.205,2.441-0.205c1.359,0,2.236,0.249,2.851,0.805
			c0.497,0.438,0.774,1.11,0.774,1.871c0,1.301-0.818,2.163-1.856,2.514v0.044c0.76,0.263,1.213,0.965,1.447,1.988
			c0.322,1.374,0.556,2.324,0.76,2.704h-1.316c-0.161-0.277-0.38-1.126-0.658-2.354c-0.292-1.359-0.818-1.871-1.973-1.915h-1.199
			v4.269H63.97V34.095z M65.242,38.582h1.301c1.359,0,2.222-0.745,2.222-1.871c0-1.271-0.921-1.827-2.266-1.842
			c-0.614,0-1.052,0.059-1.257,0.117V38.582z"/>
		<path fill="#1CCFC9" d="M73.502,40.717l-1.023,3.099h-1.316l3.348-9.853h1.535l3.362,9.853h-1.359l-1.053-3.099H73.502z
			 M76.733,39.723l-0.965-2.836c-0.219-0.644-0.366-1.229-0.512-1.798h-0.029c-0.146,0.584-0.307,1.184-0.497,1.783l-0.965,2.851
			H76.733z"/>
		<path fill="#1CCFC9" d="M85.228,35.045h-2.997v-1.082h7.294v1.082h-3.011v8.771h-1.287V35.045z"/>
		<path fill="#1CCFC9" d="M91.896,33.963v9.853h-1.272v-9.853H91.896z"/>
		<path fill="#1CCFC9" d="M99.22,39.196h-3.83v3.552h4.269v1.067h-5.54v-9.853h5.321v1.067h-4.05v3.113h3.83V39.196z"/>
		<path fill="#1CCFC9" d="M101.312,43.815v-9.853h1.389l3.157,4.984c0.731,1.155,1.301,2.193,1.769,3.202l0.029-0.015
			c-0.116-1.316-0.146-2.515-0.146-4.05v-4.122h1.198v9.853h-1.286l-3.128-4.999c-0.688-1.097-1.346-2.223-1.843-3.289l-0.043,0.015
			c0.072,1.242,0.102,2.426,0.102,4.063v4.21H101.312z"/>
		<path fill="#1CCFC9" d="M110.932,34.095c0.775-0.117,1.696-0.205,2.705-0.205c1.827,0,3.128,0.424,3.99,1.229
			c0.877,0.804,1.389,1.943,1.389,3.537c0,1.608-0.497,2.924-1.418,3.83c-0.921,0.921-2.441,1.418-4.356,1.418
			c-0.906,0-1.666-0.044-2.31-0.117V34.095z M112.204,42.807c0.321,0.059,0.789,0.073,1.286,0.073c2.719,0,4.195-1.521,4.195-4.181
			c0.015-2.324-1.301-3.801-3.991-3.801c-0.657,0-1.154,0.059-1.49,0.132V42.807z"/>
		<path fill="#1CCFC9" d="M122.058,40.717l-1.022,3.099h-1.316l3.348-9.853h1.535l3.362,9.853h-1.359l-1.053-3.099H122.058z
			 M125.289,39.723l-0.965-2.836c-0.22-0.644-0.366-1.229-0.512-1.798h-0.029c-0.146,0.584-0.308,1.184-0.497,1.783l-0.965,2.851
			H125.289z"/>
		<path fill="#1CCFC9" d="M129.237,42.266c0.57,0.352,1.403,0.644,2.28,0.644c1.301,0,2.061-0.688,2.061-1.681
			c0-0.921-0.525-1.447-1.856-1.959c-1.607-0.57-2.602-1.403-2.602-2.792c0-1.535,1.271-2.676,3.187-2.676
			c1.009,0,1.739,0.234,2.179,0.482l-0.352,1.038c-0.321-0.175-0.979-0.468-1.871-0.468c-1.345,0-1.856,0.804-1.856,1.477
			c0,0.921,0.6,1.374,1.959,1.9c1.667,0.644,2.515,1.447,2.515,2.895c0,1.52-1.126,2.836-3.45,2.836
			c-0.95,0-1.988-0.278-2.515-0.629L129.237,42.266z"/>
	</g>
	<g enable-background="new    ">
		<path fill="none" stroke="#1CCFC9" stroke-width="0.5" stroke-miterlimit="10" d="M48.472,34.08
			c0.614-0.103,1.418-0.19,2.441-0.19c1.257,0,2.178,0.293,2.763,0.818c0.541,0.468,0.862,1.185,0.862,2.062
			c0,0.892-0.263,1.594-0.76,2.105c-0.673,0.716-1.769,1.081-3.012,1.081c-0.38,0-0.73-0.015-1.023-0.088v3.947h-1.272V34.08z
			 M49.744,38.831c0.278,0.072,0.628,0.102,1.052,0.102c1.535,0,2.471-0.745,2.471-2.104c0-1.301-0.921-1.93-2.324-1.93
			c-0.556,0-0.979,0.044-1.199,0.103V38.831z"/>
		<path fill="none" stroke="#1CCFC9" stroke-width="0.5" stroke-miterlimit="10" d="M56.615,40.717l-1.023,3.099h-1.316l3.348-9.853
			h1.535l3.362,9.853h-1.359l-1.053-3.099H56.615z M59.846,39.723l-0.965-2.836c-0.219-0.644-0.366-1.229-0.512-1.798H58.34
			c-0.146,0.584-0.307,1.184-0.497,1.783l-0.965,2.851H59.846z"/>
		<path fill="none" stroke="#1CCFC9" stroke-width="0.5" stroke-miterlimit="10" d="M63.97,34.095
			c0.643-0.132,1.564-0.205,2.441-0.205c1.359,0,2.236,0.249,2.851,0.805c0.497,0.438,0.774,1.11,0.774,1.871
			c0,1.301-0.818,2.163-1.856,2.514v0.044c0.76,0.263,1.213,0.965,1.447,1.988c0.322,1.374,0.556,2.324,0.76,2.704h-1.316
			c-0.161-0.277-0.38-1.126-0.658-2.354c-0.292-1.359-0.818-1.871-1.973-1.915h-1.199v4.269H63.97V34.095z M65.242,38.582h1.301
			c1.359,0,2.222-0.745,2.222-1.871c0-1.271-0.921-1.827-2.266-1.842c-0.614,0-1.052,0.059-1.257,0.117V38.582z"/>
		<path fill="none" stroke="#1CCFC9" stroke-width="0.5" stroke-miterlimit="10" d="M73.502,40.717l-1.023,3.099h-1.316l3.348-9.853
			h1.535l3.362,9.853h-1.359l-1.053-3.099H73.502z M76.733,39.723l-0.965-2.836c-0.219-0.644-0.366-1.229-0.512-1.798h-0.029
			c-0.146,0.584-0.307,1.184-0.497,1.783l-0.965,2.851H76.733z"/>
		<path fill="none" stroke="#1CCFC9" stroke-width="0.5" stroke-miterlimit="10" d="M85.228,35.045h-2.997v-1.082h7.294v1.082
			h-3.011v8.771h-1.287V35.045z"/>
		<path fill="none" stroke="#1CCFC9" stroke-width="0.5" stroke-miterlimit="10" d="M91.896,33.963v9.853h-1.272v-9.853H91.896z"/>
		<path fill="none" stroke="#1CCFC9" stroke-width="0.5" stroke-miterlimit="10" d="M99.22,39.196h-3.83v3.552h4.269v1.067h-5.54
			v-9.853h5.321v1.067h-4.05v3.113h3.83V39.196z"/>
		<path fill="none" stroke="#1CCFC9" stroke-width="0.5" stroke-miterlimit="10" d="M101.312,43.815v-9.853h1.389l3.157,4.984
			c0.731,1.155,1.301,2.193,1.769,3.202l0.029-0.015c-0.116-1.316-0.146-2.515-0.146-4.05v-4.122h1.198v9.853h-1.286l-3.128-4.999
			c-0.688-1.097-1.346-2.223-1.843-3.289l-0.043,0.015c0.072,1.242,0.102,2.426,0.102,4.063v4.21H101.312z"/>
		<path fill="none" stroke="#1CCFC9" stroke-width="0.5" stroke-miterlimit="10" d="M110.932,34.095
			c0.775-0.117,1.696-0.205,2.705-0.205c1.827,0,3.128,0.424,3.99,1.229c0.877,0.804,1.389,1.943,1.389,3.537
			c0,1.608-0.497,2.924-1.418,3.83c-0.921,0.921-2.441,1.418-4.356,1.418c-0.906,0-1.666-0.044-2.31-0.117V34.095z M112.204,42.807
			c0.321,0.059,0.789,0.073,1.286,0.073c2.719,0,4.195-1.521,4.195-4.181c0.015-2.324-1.301-3.801-3.991-3.801
			c-0.657,0-1.154,0.059-1.49,0.132V42.807z"/>
		<path fill="none" stroke="#1CCFC9" stroke-width="0.5" stroke-miterlimit="10" d="M122.058,40.717l-1.022,3.099h-1.316
			l3.348-9.853h1.535l3.362,9.853h-1.359l-1.053-3.099H122.058z M125.289,39.723l-0.965-2.836c-0.22-0.644-0.366-1.229-0.512-1.798
			h-0.029c-0.146,0.584-0.308,1.184-0.497,1.783l-0.965,2.851H125.289z"/>
		<path fill="none" stroke="#1CCFC9" stroke-width="0.5" stroke-miterlimit="10" d="M129.237,42.266
			c0.57,0.352,1.403,0.644,2.28,0.644c1.301,0,2.061-0.688,2.061-1.681c0-0.921-0.525-1.447-1.856-1.959
			c-1.607-0.57-2.602-1.403-2.602-2.792c0-1.535,1.271-2.676,3.187-2.676c1.009,0,1.739,0.234,2.179,0.482l-0.352,1.038
			c-0.321-0.175-0.979-0.468-1.871-0.468c-1.345,0-1.856,0.804-1.856,1.477c0,0.921,0.6,1.374,1.959,1.9
			c1.667,0.644,2.515,1.447,2.515,2.895c0,1.52-1.126,2.836-3.45,2.836c-0.95,0-1.988-0.278-2.515-0.629L129.237,42.266z"/>
	</g>
</g>
</svg>
